<svg xmlns="http://www.w3.org/2000/svg" width="1268" height="200" version="1.0" viewBox="0 0 951 150"><path d="M346.5.6c-1.6.3-4 .7-5.2.9L339 2v88h9V54.3l5.1-.6c13.1-1.6 21.9-13.1 21.9-28.6 0-9.8-6.4-20.8-13.3-23-4.1-1.3-11.4-2-15.2-1.5zM360.3 11c4 3.2 6.1 9.9 5.4 17.5-.3 3.5-1.3 7.8-2.2 9.5-2.1 4-7.1 7-11.7 7H348V9h4.9c3.3 0 5.6.6 7.4 2zM572.6 1.6c-6.6 2.4-8.1 4.9-5.3 8.7 1.1 1.6 1.4 1.6 5.2-.3 6.9-3.5 14-1.9 17 4 1.9 3.7 1.9 12.2 0 15.9-2.2 4.3-7.2 8-11.6 8.7-3.7.6-3.9.8-3.9 4.4v3.7l5.2.7c4.1.6 5.9 1.5 8.9 4.4 8.4 8.5 7.1 24-2.4 28.5-4.6 2.2-10.2 2.1-15.4-.2l-4.1-1.9-1 4.1c-.6 2.2-.9 4.4-.6 4.8.9 1.5 9.9 3.9 14.4 3.9 9.8 0 16.9-4.4 20.8-12.9 2.9-6.4 3.5-15.2 1.3-21.4-1.7-5-6.7-10.6-10.9-12.4l-3.4-1.4 3.3-2.2c1.8-1.2 4.7-4.2 6.3-6.5 5.1-7.3 4.8-20.8-.6-27.8-4.6-5.7-14.8-7.9-23.2-4.8zM804 .7c-1.9.2-4.5.6-5.7.8L796 2v88h9V54.3l4.9-.6c12.8-1.5 20.9-10.8 21.9-24.9C833.2 9.3 822.7-1.3 804 .7zm12.8 9.9c3.9 2.7 5.6 7.3 5.6 15.4 0 12.2-5.2 19-14.3 19H805V9h4.8c2.7 0 5.7.7 7 1.6zM921.5.7c-1.6.2-4 .6-5.2.8L914 2v87.8l5.8.7c13.1 1.5 23.5-2.9 28-11.9 6.2-12.4 3-28-7.1-34.5l-3.7-2.5 3.6-3c2-1.6 4.5-4.8 5.5-7 2.2-4.9 2.5-15.2.5-19.9-1.4-3.4-6.5-8.4-10-9.7-2.9-1-11.5-1.8-15.1-1.3zm12.7 9.9c4.7 4.3 6.2 13.6 3.2 20-2.4 4.9-6.3 7.4-11.8 7.4H921V23.6c0-10.6.3-14.6 1.3-15 2.4-1.1 9.8.2 11.9 2zm-.4 38.1c4.9 3.6 6.6 7 7 13.7.8 12.1-3.7 18.6-13.3 19.4l-5.5.4V45.7l4.6.6c2.6.2 5.8 1.3 7.2 2.4zM456 45.5V90h31v-9h-22V48.1l9.8-.3 9.7-.3.3-4.3.3-4.2H465V10.1l10.3-.3 10.2-.3.3-4.3.3-4.2H456v44.5zM684 45.5V90h31v-9h-22V48h19v-9h-19V10.1l10.3-.3 10.2-.3.3-4.3.3-4.2H684v44.5zM83.2 4.3C82 5.6 81 7.8 81 9.2c0 1.9-1.4 3.8-5 7-2.8 2.4-6.7 6.1-8.8 8.2-2 2.2-9 9.4-15.6 16-6.5 6.7-12.8 13.7-14.1 15.6-3 4.7-23.2 27.8-27.4 31.3C8.3 88.8 6.3 90 5.6 90c-.7 0-2.3 1.1-3.6 2.5C-.3 94.9-.3 95 1.5 97c1 1.1 2.5 2 3.4 2 .9 0 4.3-3 7.6-6.7s9-9.9 12.6-13.7C28.7 74.7 35 67.7 39 63c4-4.6 15.1-16.5 24.7-26.4 14.7-15.2 17.7-17.8 19.1-17 2 1.3 2.9 11.8 1.2 13.9-.8.9-.7 1.4.5 1.9 1.1.4 1.5 2 1.5 5.4 0 4.3-.6 5.6-4.2 10.2-3.6 4.5-4 5.5-3.2 7.8.7 2.1 1.7 2.8 4.2 3l3.2.3v7.3c0 6.4-.3 7.5-2.5 9.6-3 2.8-3.2 4.6-.5 6 1.7.9 2 2.1 2 9 0 5.5-.5 9.1-1.7 11.6-1.7 3.4-1.7 3.6.1 5 1 .7 2.4 1.5 3 1.7.7.2 1.2 4 1.4 9.5.5 11.2.8 11.1-14 4.8-5.6-2.4-12.1-4.9-14.3-5.6-2.2-.7-5.1-2.1-6.5-3.1-1.4-.9-4.4-2.1-6.5-2.4-2.2-.4-5.6-1.6-7.5-2.5-1.9-1-6.9-2.5-11-3.4-4.1-1-10.1-3.1-13.3-4.7-3.2-1.6-6.6-2.9-7.6-2.9-2.7 0-4.4 2.6-3.7 5.6.8 3.2 4.2 4.6 20 8.5 21.4 5.1 26.9 6.9 37.3 12 5.7 2.7 11.1 4.9 12 4.9 1 0 3.8.9 6.2 2l4.4 2-3.9 3.1c-2.2 1.7-4.6 3.5-5.4 3.9-1.2.7-1.2 1.1-.3 2.1 1 1 1.6.9 3.1-.4 1-1 3.5-1.7 5.5-1.7s3.7-.4 3.7-.9c0-1.3 5.6-3 7.9-2.4 1.4.4 2.7-.2 4-1.8l1.9-2.4 2.4 2.1c3 2.7 5.2 2.1 7.8-2.1 4.9-7.9 13.8-11.9 39.3-18 5.8-1.4 14.3-3.6 18.9-4.9 4.6-1.3 11.4-2.7 15.1-3.1 3.8-.4 8.3-1.3 10.1-2 1.7-.7 8.6-2.5 15.3-3.9 12.8-2.6 21.8-5.9 22.7-8.2 1.5-3.9-2.9-8.6-9.4-9.9-3.2-.7-2.4-1.1 10.8-5.4 7.9-2.6 14.7-5.3 15.2-6.1 1.7-2.6 1.1-4.8-2.1-7.5-1.7-1.4-3-2.7-2.8-2.9.2-.2 2.9-1.1 6-2 6.2-1.7 10.9-4.9 10.9-7.3 0-.9-.7-2.5-1.7-3.5-1-1.1-1.2-1.8-.4-1.8.7 0 2.4-1.2 3.8-2.6l2.6-2.6-3.2-1.4c-4.7-2-15.6-1.7-25.3.6-4.6 1.1-11.2 2-14.8 2-3.6 0-9.9.9-14 2s-8.9 2-10.6 2c-1.7 0-5.7.9-8.9 2-9.5 3.3-15.9 2.2-7.7-1.3 2-.9 8-3 13.2-4.7 10.5-3.3 19.9-7.8 21.4-10.2 1.4-2.3-1-4.8-4.6-4.8-3.7 0-31.5 5.8-53.5 11.1-8.9 2.2-18.3 4.2-20.8 4.6-4.1.5-4.5.4-4.5-1.5 0-2.6-4.8-6.5-7.3-5.8-2.7.7-12-8.2-11.3-10.8.7-2.6-1-4.6-3.9-4.6-1.7 0-4-2.1-8.4-7.5-3.3-4.1-5.6-7.7-5.1-8C96.7 7.4 95 6 92.2 6c-1.6 0-3.2-.8-4-2-1.6-2.6-2.4-2.5-5 .3zM96 21.2c4.1 3 3.8 5.4-.6 7.3-2 .8-3.8 1.5-4 1.5-.2 0-.4-2.5-.4-5.5 0-6.1.7-6.5 5-3.3zm7 11.3c0 .8-1.3 2.1-2.9 2.9-1.6.9-4.3 2.7-6 4.2l-3.2 2.7.3-3.9c.3-3.6.6-4 4.8-5.6 5.6-2.1 7-2.2 7-.3zm10.6 6.9 3.9 3.4-9 4.1c-4.9 2.3-9.9 4.4-11.1 4.7-4.1 1.1-3.4-1.5 1.8-6.3 2.9-2.6 6.1-5.8 7.3-6.9 1.1-1.2 2.3-2.2 2.6-2.3.3-.1 2.3 1.4 4.5 3.3zm75.4-.6c0 2.4-42.7 19.2-48.6 19.2-1 0-5.9-6.8-5.3-7.4.8-.8 48.5-12.4 51.2-12.5 1.5-.1 2.7.3 2.7.7zm-68.6 10.7c-.5 1.2-15.9 14-26.1 21.8-1 .7-1.3-.4-1.3-5.2V60l8.8-4.2c8.8-4.1 17.1-7.7 18.4-7.8.4 0 .5.7.2 1.5zm97.5 3.9c-.2.3-11.9 3.7-25.8 7.5-14 3.9-28.1 8.1-31.3 9.2l-5.9 2.2-2.9-2.8c-1.7-1.6-3-3.1-3-3.4 0-.3 6-1.9 13.3-3.4 7.2-1.6 15.9-3.5 19.2-4.4 9.1-2.4 37.8-6.2 36.4-4.9zm-90.7 7.3c-3.2 1.4-8.2 1.7-8.2.4 0-.4 1.7-2 3.8-3.4l3.7-2.5 1.7 2.1c1.7 2.1 1.6 2.2-1 3.4zM241 57.5c0 1.8-28.3 11.5-38 13-2.5.4-6.5 1.5-9 2.5-5.2 2-18 4.4-18.9 3.5-1-1.1 4.2-4.3 7.9-5 1.9-.4 7.6-1.9 12.5-3.5 5-1.6 12.8-3.6 17.5-4.6 4.7-1 9.1-2.2 9.9-2.8 2.3-1.8 18.1-4.5 18.1-3.1zM123.8 70.2c-.3.7-7.3 7.1-15.6 14.1L93 97.1V84.5l6.3-4.2c12.8-8.7 25.7-14 24.5-10.1zm22.3 4c4.8 4.2 5.7 5.3 4.4 6-1 .6-2.5.3-4.4-.8-2.9-1.7-3.2-1.7-10.8.8-4.3 1.5-8.6 2.9-9.5 3.3-1.3.5-1.8.2-1.8-.9 0-.9.3-1.6.8-1.6.4 0 3.6-2.7 7.1-6 3.5-3.3 6.8-6 7.3-6s3.6 2.3 6.9 5.2zm72.8 1.3c-1.2 1.1-34.1 12.9-43.7 15.5-20.7 5.9-26.3 7.2-27.9 6.6-1.3-.5-1.3-.9-.2-2.2 1.9-2.4 4.4-3.4 11.7-4.9 6.4-1.2 23.9-5.9 47.2-12.4 10.1-2.8 13.8-3.6 12.9-2.6zM136 88.9c0 1.2-30.4 30.6-35.4 34.2-6.7 4.9-7.6 4.3-7.6-5.6 0-7.7.2-8.5 2.3-9.6 1.2-.6 6.8-4.1 12.5-7.6s13.1-7.8 16.5-9.4c6.1-2.8 11.7-3.8 11.7-2zm69.9 7.5c-1 .9-28.2 8.6-30.5 8.6-3 0-31.7 7.1-39.6 9.9-3.3 1.1-6 1.6-6.3 1-.7-1.1 8-6.8 11.5-7.5 3.3-.7 16.1-4 23.2-5.9 9.3-2.6 43.3-7.5 41.7-6.1zM356.8 118.8c-1.6.3-1.8 1.6-1.8 10.4 0 7.5.3 9.9 1.3 9.6.6-.3 1.3-2.3 1.5-4.5.3-3.4.7-4.2 2.7-4.7 1.6-.4 2.6-1.6 3-3.5 1.1-5-2-8.4-6.7-7.3zm5 5c.4 2.3-1.3 5.2-2.9 5.2-.5 0-.9-1.8-.9-4.1 0-3.3.3-4 1.8-3.7.9.2 1.8 1.4 2 2.6zM368 118.8c0 .5.7 2.9 1.6 5.5 1.5 4.3 1.5 5.1 0 9.4-.9 2.5-1.3 4.9-1 5.2.7.7 2.4-2 2.4-4.1 0-3.2 1.8-2.8 3 .7.6 1.9 1.6 3.5 2.2 3.5.6 0 .7-.8.3-1.7-2.6-6.8-2.8-10.2-1.2-14.4.9-2.3 1.5-4.4 1.3-4.7-1-.9-2.5 1-3.1 4l-.8 3.2-1.4-3.7c-1.4-3.3-3.3-5-3.3-2.9zM462.8 118.7c-1.6.4-1.8 1.7-1.8 10.4 0 5.9.4 9.9 1 9.9s1-2 1-4.4c0-3.8.3-4.5 2.2-4.8 2.8-.4 4.9-4.4 3.9-7.1-1-2.6-4.1-4.5-6.3-4zm4.7 4.3c.8 2.4-1.1 6-3 6-1.1 0-1.5-1.2-1.5-4 0-3.3.3-4 1.9-4 1.1 0 2.2.9 2.6 2zM545.3 118.7c-1.6.6-1.8 20.3-.3 20.3.6 0 1-2 1-4.5 0-3.7.3-4.5 1.8-4.5 4.5 0 6-7.6 2-10.4-2.4-1.7-2.6-1.7-4.5-.9zm4.2 6.3c0 2.5-.5 3.6-1.7 3.8-1.5.3-1.8-.4-1.8-3.8s.3-4.1 1.8-3.8c1.2.2 1.7 1.3 1.7 3.8zM588.4 118.8c-3.3 2.2-4.6 12.4-2.2 17.7 1.5 3.4 5.7 3.1 7.5-.5 3-6 .5-18-3.7-18-.3 0-1 .4-1.6.8zm3.4 3.4c2.4 2.4 1 15.8-1.7 15.8-2.6 0-4-9.6-2.1-14.4 1.1-2.9 2-3.2 3.8-1.4zM603.3 119.5c-4.3 3-5.2 13.5-1.5 17.7 1.6 1.9 6.2 2.5 6.2.8 0-.6-.9-1-2-1-2.6 0-4-2.9-4-8.7 0-5.2 1.2-7.3 4.3-7.3 1 0 1.7-.5 1.5-1.2-.7-1.9-2.1-1.9-4.5-.3zM627.8 118.8c-1.6.3-1.8 1.6-1.8 10.4 0 7.5.3 9.9 1.3 9.6.6-.3 1.3-2.3 1.5-4.6.3-3.4.7-4.2 2.3-4.2 1.1 0 2.4-1.1 3.1-2.5 2.2-4.9-1.5-9.8-6.4-8.7zm4.7 4.2c.8 2.4-1.1 6-3 6-1.1 0-1.5-1.2-1.5-4 0-3.3.3-4 1.9-4 1.1 0 2.2.9 2.6 2zM642.4 118.8c-3.3 2.2-4.6 12.4-2.2 17.7 1.3 2.8 4.8 3.4 6.8 1 2.8-3.4 2.4-14.9-.6-18-1.7-1.7-2.4-1.8-4-.7zm3.4 3.4c1.7 1.7 1.5 12-.2 14.4-1.2 1.5-1.7 1.6-2.7.7-1.7-1.7-2.4-11.5-1-14.2 1.3-2.4 2.2-2.6 3.9-.9zM726.4 119c-1.1.5-2.7 2.2-3.4 3.9-1.5 3.6-.9 12.3 1 14.6 1.4 1.7 7 2.1 7 .5 0-.6-1.1-1-2.3-1-1.6 0-2.8-.9-3.5-2.5-2.5-5.4-.8-13.5 2.8-13.5 1.1 0 2-.4 2-.9 0-1.5-1.3-1.9-3.6-1.1zM750.3 118.7c-.9.3-1.3 3.3-1.3 10.4v9.9h2.9c2 0 3.5-.8 4.5-2.2 2-2.9 2-4.7-.1-7-1.3-1.4-1.4-2.1-.5-3 3.4-3.4-1-9.7-5.5-8.1zm4.1 3.8c.7 2-.2 4.2-2 4.9-1 .4-1.4-.3-1.4-2.9 0-3.6 2.2-4.9 3.4-2zm-.4 7.9c1.6 2 .9 6-1.2 6.4-1.5.3-1.8-.4-1.8-3.7 0-4.3.9-5.1 3-2.7zM763.9 119.6c-1.8 2.2-2.4 12.8-.9 16.5 1 2.4 1.8 2.9 3.9 2.7 3.6-.4 5.3-4.1 4.8-11-.5-8-4.5-12.2-7.8-8.2zm4.9 2.6c1.7 1.7 1.5 12-.2 14.4-1.2 1.5-1.7 1.6-2.7.7-1.7-1.7-2.4-11.5-1-14.2 1.3-2.4 2.2-2.6 3.9-.9zM911.8 118.8c-1.6.3-1.8 1.6-1.8 10.4 0 7.5.3 9.9 1.3 9.6.6-.3 1.3-2.3 1.5-4.5.3-3.4.7-4.2 2.7-4.7 1.6-.4 2.6-1.6 3-3.5 1.1-5-2-8.4-6.7-7.3zm5 5c.4 2.3-1.3 5.2-2.9 5.2-.5 0-.9-1.8-.9-4.1 0-3.3.3-4 1.8-3.7.9.2 1.8 1.4 2 2.6zM343.5 121.2c-1.9 8.2-3.5 17.2-3.1 17.5 1 1.1 2.6-1 2.6-3.3 0-3.3 3.2-2.9 4 .5.3 1.4 1.1 2.6 1.8 2.9 1.5.5 1.5.8-.3-8-2.3-11.2-2.5-11.8-3.5-11.8-.5 0-1.2 1-1.5 2.2zm2.8 6c.4 2.9.2 3.8-.9 3.8-1.5 0-1.8-2-.8-5.8.8-2.8 1-2.6 1.7 2zM381 129c0 12.3 1.5 13.1 5 2.7l2.5-7.2.3 7.2c.4 11.1 2.2 8.8 2.2-2.8 0-12-1.2-12.6-4.5-2.4l-2.3 7-.1-7.3c-.1-5.7-.4-7.2-1.6-7.2-1.2 0-1.5 1.8-1.5 10zM396 120c0 .5.7 1 1.5 1 1.2 0 1.5 1.7 1.5 9 0 5.3.4 9 1 9s1-3.7 1-9c0-8.3.1-9 2-9 1.1 0 2-.5 2-1 0-.6-2-1-4.5-1s-4.5.4-4.5 1zM410 129v10h3.5c1.9 0 3.5-.5 3.5-1 0-.6-1.1-1-2.5-1-2.2 0-2.5-.4-2.5-3.5 0-2.8.4-3.5 2-3.5 1.1 0 2-.5 2-1 0-.6-.9-1-2-1-1.6 0-2-.7-2-3.5s.4-3.5 2-3.5c1.1 0 2-.5 2-1 0-.6-1.3-1-3-1h-3v10zM423.3 129c.1 5.8.2 8.4.4 5.7.3-3.2.9-4.7 1.8-4.7 1.4 0 2 1.5 2.7 6.4.2 1.1.8 2.1 1.5 2.3 1.6.6-.3-7.9-2.1-9.1-1.1-.8-1.1-1.7.5-5.4 2.2-5 2.2-5.2 1-5.2-.5 0-1.7 2-2.8 4.5l-1.8 4.5-.6-4.7c-.4-3.1-.6-1.1-.6 5.7zM434 120c0 .5.9 1 2 1 1.9 0 2 .7 2 9 0 5.3.4 9 1 9s1-3.7 1-9c0-7.3.3-9 1.5-9 .8 0 1.5-.5 1.5-1 0-.6-2-1-4.5-1s-4.5.4-4.5 1zM447 119.7c0 .4.9 3.7 2 7.3 2.4 7.9 2.4 8.4.4 10.5-2.2 2.2-.9 3.2 1.5 1.1 1.9-1.7 6.7-18.3 5.6-19.4-.9-1-2.2 1.7-2.9 6.1-.8 4.6-1.7 4.2-3.1-1.5-.6-2.3-1.6-4.3-2.3-4.6-.7-.2-1.2 0-1.2.5zM475.5 120.2c-.5 1.8-3.5 16.8-3.5 17.9 0 2.2 1.9.6 2.5-2.2.9-3.8 3.9-3.6 4.3.4.2 1.5.9 2.7 1.6 2.7 1.4 0 1.2-1.5-1.5-14.8-1-4.9-2.5-6.7-3.4-4zm2.7 7.3c.3 2.8.1 3.5-1.3 3.5-1.3 0-1.6-.6-1.2-2.3 1.3-5.8 1.9-6.1 2.5-1.2zM532 129c0 6 .4 10 1 10s1-3.7 1-9c0-8.9 0-9 2.5-9 1.4 0 2.5-.5 2.5-1 0-.6-1.6-1-3.5-1H532v10zM558.5 120.2c-.4 1.2-3.5 17.5-3.5 18.4 0 .2.4.4.9.4s1.1-1.4 1.5-3.1c.7-3.7 3.7-3.7 4.6 0 .3 1.4 1.1 2.6 1.8 2.9.9.3 1.1-.3.7-2-.8-3.4-3.5-16.9-3.5-17.4 0-1-2.1-.3-2.5.8zm2.8 7.5c.6 2.8.4 3.3-1.2 3.3-1.5 0-1.8-.5-1.4-2.3 1.3-5.8 1.7-6 2.6-1zM572 126.8c0 5.3-.5 8.4-1.5 9.8-1.6 2.2-2 6.4-.5 6.4.6 0 1-.9 1-2 0-1.7.7-2 4-2s4 .3 4 2c0 1.1.5 2 1.1 2 .8 0 1-1.5.5-4.6-.3-2.6-.6-8-.6-12V119h-8v7.8zm5 2.2c0 7.5-.1 8-2.1 8-1.7 0-2-.4-1.5-2.2.3-1.3.6-4.9.6-8.1 0-4.4.3-5.7 1.5-5.7s1.5 1.6 1.5 8zM613 120c0 .5.7 1 1.5 1 1.2 0 1.5 1.7 1.5 9 0 5.3.4 9 1 9s1-3.7 1-9c0-7.3.3-9 1.5-9 .8 0 1.5-.5 1.5-1 0-.6-1.8-1-4-1s-4 .4-4 1zM654 129c0 5.5.4 10 .9 10 .4 0 2-3 3.4-6.8l2.5-6.7.1 6.7c.1 3.8.5 6.8 1.1 6.8.6 0 1-4 1-10 0-5.5-.4-10-.8-10s-1.8 3.1-3.1 7c-1.2 3.8-2.3 7-2.4 7-.2 0-.1-3.2.1-7 .4-5.9.2-7-1.2-7s-1.6 1.5-1.6 10zM668 120c0 .5.7 1 1.5 1 1.2 0 1.5 1.7 1.5 9s.3 9 1.5 9 1.5-1.7 1.5-9 .3-9 1.5-9c.8 0 1.5-.5 1.5-1 0-.6-2-1-4.5-1s-4.5.4-4.5 1zM682 129v10h3.5c1.9 0 3.5-.5 3.5-1 0-.6-1.1-1-2.5-1-2.2 0-2.5-.4-2.5-3.5 0-2.8.4-3.5 2-3.5 1.1 0 2-.5 2-1 0-.6-.9-1-2-1-1.6 0-2-.7-2-3.5 0-3.1.3-3.5 2.5-3.5 1.4 0 2.5-.5 2.5-1 0-.6-1.6-1-3.5-1H682v10zM694 127.8c0 5-.5 9.3-1.1 9.9-.7.7-.7 1.3-.1 1.7 2.1 1.3 3.7-2.9 4.1-10.6.3-6.9.5-7.8 2.2-7.8 1.7 0 1.9.8 1.9 9 0 5.3.4 9 1 9s1-4 1-10v-10h-9v8.8zM709 129.4c0 10.3.1 10.6 2.3 10.6 3 0 4.4-1.1 5.6-4.3 1.4-3.7-.1-7.5-3.4-8.3-2-.5-2.5-1.2-2.5-3.9 0-1.9-.4-3.7-1-4-.6-.4-1 3.2-1 9.9zm5.5 3.6c0 2.5-.5 3.6-1.7 3.8-1.5.3-1.8-.4-1.8-3.8s.3-4.1 1.8-3.8c1.2.2 1.7 1.3 1.7 3.8zM735 120c0 .5.7 1 1.5 1 1.2 0 1.5 1.7 1.5 9s.3 9 1.5 9 1.5-1.7 1.5-9 .3-9 1.5-9c.8 0 1.5-.5 1.5-1 0-.6-2-1-4.5-1s-4.5.4-4.5 1zM821 129c0 9.9.8 12.1 2.7 7.7 1.4-3.4.4-17.7-1.3-17.7-1.1 0-1.4 2.1-1.4 10zM826.7 124.3c-2 6.3-2.1 9.7-.2 4.7l1.3-3.5.1 6.7c.1 3.8.5 6.8 1.1 6.8.6 0 1-4 1-10 0-5.5-.4-10-.8-10-.5 0-1.6 2.4-2.5 5.3zM836 129c0 8.2.3 10 1.5 10 1.1 0 1.5-1.2 1.5-4.5 0-3.8.3-4.5 2-4.5s2 .7 2 4.5c0 3.3.4 4.5 1.5 4.5 1.2 0 1.5-1.8 1.5-10s-.3-10-1.5-10c-1.1 0-1.5 1.2-1.5 4.5 0 3.8-.3 4.5-2 4.5s-2-.7-2-4.5c0-3.3-.4-4.5-1.5-4.5-1.2 0-1.5 1.8-1.5 10zM853.1 123.5c1.8 4 1.8 4.7.5 6.7-1.8 2.9-3.3 10.4-1.9 9.5.6-.4 1.3-2.4 1.7-4.6.3-2.1 1.3-4.1 2.1-4.5 1.2-.4 1.5.4 1.5 4.4 0 2.8.5 5 1 5 .6 0 1-2.3 1-5 0-7.2 2.7-6.5 3.9.9.4 1.9 1.2 3.6 1.8 3.8 1.6.6.8-4.6-1.4-9.4-1.3-2.8-1.3-3.5.1-6.2 1.8-3.4 2-5.1.7-5.1-.5 0-1.8 2.1-2.9 4.7l-2 4.8-.1-4.8c-.1-5.8-2.1-6.3-2.2-.5l-.1 4.3-1.9-4.3c-1.1-2.3-2.4-4.2-2.9-4.2s0 2 1.1 4.5zM871 129v10h3.5c1.9 0 3.5-.5 3.5-1 0-.6-1.1-1-2.5-1-2.2 0-2.5-.4-2.5-3.5 0-2.8.4-3.5 2-3.5 1.1 0 2-.5 2-1 0-.6-.9-1-2-1-1.6 0-2-.7-2-3.5 0-3.1.3-3.5 2.5-3.5 1.4 0 2.5-.5 2.5-1 0-.6-1.6-1-3.5-1H871v10zM883 129c0 6 .4 10 1 10s1-2 1-4.5c0-4.1.2-4.5 2.5-4.5s2.5.4 2.5 4.5c0 2.5.5 4.5 1 4.5.6 0 1-4 1-10s-.4-10-1-10c-.5 0-1 2-1 4.5 0 4.1-.2 4.5-2.5 4.5s-2.5-.4-2.5-4.5c0-2.5-.4-4.5-1-4.5s-1 4-1 10zM898 129v10h4.1c2.4 0 3.8-.4 3.4-1-.3-.6-1.7-1-3.1-1-2.1 0-2.4-.5-2.4-3.5 0-2.8.4-3.5 1.9-3.5 1.1 0 2.3-.5 2.6-1 .4-.6-.5-1-1.9-1-2.3 0-2.6-.4-2.6-3.5s.3-3.5 2.5-3.5c1.4 0 2.5-.5 2.5-1 0-.6-1.6-1-3.5-1H898v10zM924 129.2c0 7.1.3 9.9 1 9.2 1.2-1.2 1.4-3.4 1.2-12.7-.3-10.9-2.2-7.9-2.2 3.5zM930.7 119.7c-.2.5-1.2 3.2-2.2 6.1-2 6.1-1.4 8.3.7 2.5l1.3-3.8.6 7.5.5 7.5.2-10.3c.2-9.5 0-11.3-1.1-9.5zM939.5 121.4c-1.8 2.7-1.4 7.6.6 7.6.8 0 .8.4.1 1.3-1.4 1.6-2.8 10.5-1.6 9.4.5-.5 1.4-2.5 1.9-4.5 1.6-5.4 3.5-5.3 3.5.3 0 3.3.4 4.5 1.3 4.3.8-.3 1.2-3.3 1.2-10.4v-9.9l-2.7-.3c-2-.2-3.1.4-4.3 2.2zm5.5 3.6c0 3.8-.2 4-2 3-3.1-1.7-2.6-7 .7-7 .9 0 1.3 1.3 1.3 4z"/></svg>